<svg xmlns="http://www.w3.org/2000/svg" viewBox="0 0 64 64">
  <defs>
    <linearGradient id="bg" x1="10" y1="8" x2="54" y2="58" gradientUnits="userSpaceOnUse">
      <stop stop-color="#7C4DFF"/>
      <stop offset="1" stop-color="#FF6F91"/>
    </linearGradient>
  </defs>
  <rect width="64" height="64" rx="16" fill="url(#bg)"/>
  <path d="M18 18c0-2 2-3 4-2l10 5 10-5c2-1 4 0 4 2v30c0 2-2 3-4 2l-10-5-10 5c-2 1-4 0-4-2V18Z" fill="#fff" opacity=".96"/>
  <path d="M32 21v24" stroke="#6B3FF2" stroke-width="3" stroke-linecap="round"/>
  <path d="M24 25h5M24 31h5M35 25h5M35 31h5" stroke="#6B3FF2" stroke-width="2.5" stroke-linecap="round"/>
  <path d="M22 14l5 5h-8l3-5Zm20 0 3 5h-8l5-5Z" fill="#fff"/>
  <circle cx="27" cy="39" r="2" fill="#6B3FF2"/>
  <circle cx="37" cy="39" r="2" fill="#6B3FF2"/>
  <path d="M30 44c1.3 1 2.7 1 4 0" stroke="#6B3FF2" stroke-width="2" stroke-linecap="round"/>
</svg>
